<svg width="180" height="40" viewBox="0 0 180 40" fill="none" xmlns="http://www.w3.org/2000/svg">
<circle cx="20" cy="20" r="20" fill="url(#paint0_linear)"/>
<g clip-path="url(#clip0)">
<path d="M24.0714 19.7108C24.8857 19.8394 25.6249 20.1716 26.2892 20.7073C26.9749 21.243 27.5106 21.9073 27.8964 22.7001C28.3034 23.493 28.5071 24.3394 28.5071 25.2394C28.5071 26.3752 28.2178 27.4038 27.6392 28.3251C27.0606 29.2251 26.2142 29.943 25.0999 30.4787C24.0071 30.993 22.7106 31.2501 21.2106 31.2501H13.8535C13.3012 31.2501 12.8535 30.8024 12.8535 30.2501V9.84656C12.8535 9.29427 13.3012 8.84656 13.8535 8.84656H20.8892C22.4107 8.84656 23.7071 9.1037 24.7785 9.61799C25.8499 10.1108 26.6535 10.7858 27.1892 11.643C27.7249 12.5001 27.9928 13.4644 27.9928 14.5358C27.9928 15.8644 27.6285 16.968 26.8999 17.8466C26.1928 18.7037 25.2499 19.3251 24.0714 19.7108Z" fill="url(#paint1_linear)"/>
</g>
<path d="M58.668 19.538C59.124 19.61 59.538 19.796 59.91 20.096C60.294 20.396 60.594 20.768 60.81 21.212C61.038 21.656 61.152 22.13 61.152 22.634C61.152 23.27 60.99 23.846 60.666 24.362C60.342 24.866 59.868 25.268 59.244 25.568C58.632 25.856 57.906 26 57.066 26H52.386V13.454H56.886C57.738 13.454 58.464 13.598 59.064 13.886C59.664 14.162 60.114 14.54 60.414 15.02C60.714 15.5 60.864 16.04 60.864 16.64C60.864 17.384 60.66 18.002 60.252 18.494C59.856 18.974 59.328 19.322 58.668 19.538ZM54.024 18.872H56.778C57.546 18.872 58.14 18.692 58.56 18.332C58.98 17.972 59.19 17.474 59.19 16.838C59.19 16.202 58.98 15.704 58.56 15.344C58.14 14.984 57.534 14.804 56.742 14.804H54.024V18.872ZM56.922 24.65C57.738 24.65 58.374 24.458 58.83 24.074C59.286 23.69 59.514 23.156 59.514 22.472C59.514 21.776 59.274 21.23 58.794 20.834C58.314 20.426 57.672 20.222 56.868 20.222H54.024V24.65H56.922ZM72.4251 20.69C72.4251 21.002 72.4071 21.332 72.3711 21.68H64.4871C64.5471 22.652 64.8771 23.414 65.4771 23.966C66.0891 24.506 66.8271 24.776 67.6911 24.776C68.3991 24.776 68.9871 24.614 69.4551 24.29C69.9351 23.954 70.2711 23.51 70.4631 22.958H72.2271C71.9631 23.906 71.4351 24.68 70.6431 25.28C69.8511 25.868 68.8671 26.162 67.6911 26.162C66.7551 26.162 65.9151 25.952 65.1711 25.532C64.4391 25.112 63.8631 24.518 63.4431 23.75C63.0231 22.97 62.8131 22.07 62.8131 21.05C62.8131 20.03 63.0171 19.136 63.4251 18.368C63.8331 17.6 64.4031 17.012 65.1351 16.604C65.8791 16.184 66.7311 15.974 67.6911 15.974C68.6271 15.974 69.4551 16.178 70.1751 16.586C70.8951 16.994 71.4471 17.558 71.8311 18.278C72.2271 18.986 72.4251 19.79 72.4251 20.69ZM70.7331 20.348C70.7331 19.724 70.5951 19.19 70.3191 18.746C70.0431 18.29 69.6651 17.948 69.1851 17.72C68.7171 17.48 68.1951 17.36 67.6191 17.36C66.7911 17.36 66.0831 17.624 65.4951 18.152C64.9191 18.68 64.5891 19.412 64.5051 20.348H70.7331ZM76.5852 17.486V23.3C76.5852 23.78 76.6872 24.122 76.8912 24.326C77.0952 24.518 77.4492 24.614 77.9532 24.614H79.1592V26H77.6832C76.7712 26 76.0872 25.79 75.6312 25.37C75.1752 24.95 74.9472 24.26 74.9472 23.3V17.486H73.6692V16.136H74.9472V13.652H76.5852V16.136H79.1592V17.486H76.5852ZM80.5318 21.032C80.5318 20.024 80.7358 19.142 81.1438 18.386C81.5518 17.618 82.1098 17.024 82.8178 16.604C83.5378 16.184 84.3358 15.974 85.2118 15.974C86.0758 15.974 86.8258 16.16 87.4618 16.532C88.0978 16.904 88.5718 17.372 88.8838 17.936V16.136H90.5398V26H88.8838V24.164C88.5598 24.74 88.0738 25.22 87.4258 25.604C86.7898 25.976 86.0458 26.162 85.1938 26.162C84.3178 26.162 83.5258 25.946 82.8178 25.514C82.1098 25.082 81.5518 24.476 81.1438 23.696C80.7358 22.916 80.5318 22.028 80.5318 21.032ZM88.8838 21.05C88.8838 20.306 88.7338 19.658 88.4338 19.106C88.1338 18.554 87.7258 18.134 87.2098 17.846C86.7058 17.546 86.1478 17.396 85.5358 17.396C84.9238 17.396 84.3658 17.54 83.8618 17.828C83.3578 18.116 82.9558 18.536 82.6558 19.088C82.3558 19.64 82.2058 20.288 82.2058 21.032C82.2058 21.788 82.3558 22.448 82.6558 23.012C82.9558 23.564 83.3578 23.99 83.8618 24.29C84.3658 24.578 84.9238 24.722 85.5358 24.722C86.1478 24.722 86.7058 24.578 87.2098 24.29C87.7258 23.99 88.1338 23.564 88.4338 23.012C88.7338 22.448 88.8838 21.794 88.8838 21.05ZM141.941 26.108C141.629 26.108 141.365 26 141.149 25.784C140.933 25.568 140.825 25.304 140.825 24.992C140.825 24.68 140.933 24.416 141.149 24.2C141.365 23.984 141.629 23.876 141.941 23.876C142.241 23.876 142.493 23.984 142.697 24.2C142.913 24.416 143.021 24.68 143.021 24.992C143.021 25.304 142.913 25.568 142.697 25.784C142.493 26 142.241 26.108 141.941 26.108ZM150.005 15.956C151.205 15.956 152.177 16.322 152.921 17.054C153.665 17.774 154.037 18.818 154.037 20.186V26H152.417V20.42C152.417 19.436 152.171 18.686 151.679 18.17C151.187 17.642 150.515 17.378 149.663 17.378C148.799 17.378 148.109 17.648 147.593 18.188C147.089 18.728 146.837 19.514 146.837 20.546V26H145.199V16.136H146.837V17.54C147.161 17.036 147.599 16.646 148.151 16.37C148.715 16.094 149.333 15.956 150.005 15.956ZM160.78 15.974C161.632 15.974 162.376 16.16 163.012 16.532C163.66 16.904 164.14 17.372 164.452 17.936V16.136H166.108V26.216C166.108 27.116 165.916 27.914 165.532 28.61C165.148 29.318 164.596 29.87 163.876 30.266C163.168 30.662 162.34 30.86 161.392 30.86C160.096 30.86 159.016 30.554 158.152 29.942C157.288 29.33 156.778 28.496 156.622 27.44H158.242C158.422 28.04 158.794 28.52 159.358 28.88C159.922 29.252 160.6 29.438 161.392 29.438C162.292 29.438 163.024 29.156 163.588 28.592C164.164 28.028 164.452 27.236 164.452 26.216V24.146C164.128 24.722 163.648 25.202 163.012 25.586C162.376 25.97 161.632 26.162 160.78 26.162C159.904 26.162 159.106 25.946 158.386 25.514C157.678 25.082 157.12 24.476 156.712 23.696C156.304 22.916 156.1 22.028 156.1 21.032C156.1 20.024 156.304 19.142 156.712 18.386C157.12 17.618 157.678 17.024 158.386 16.604C159.106 16.184 159.904 15.974 160.78 15.974ZM164.452 21.05C164.452 20.306 164.302 19.658 164.002 19.106C163.702 18.554 163.294 18.134 162.778 17.846C162.274 17.546 161.716 17.396 161.104 17.396C160.492 17.396 159.934 17.54 159.43 17.828C158.926 18.116 158.524 18.536 158.224 19.088C157.924 19.64 157.774 20.288 157.774 21.032C157.774 21.788 157.924 22.448 158.224 23.012C158.524 23.564 158.926 23.99 159.43 24.29C159.934 24.578 160.492 24.722 161.104 24.722C161.716 24.722 162.274 24.578 162.778 24.29C163.294 23.99 163.702 23.564 164.002 23.012C164.302 22.448 164.452 21.794 164.452 21.05Z" fill="#F4F4F4"/>
<path d="M99.9139 26L96.9259 20.87H94.9459V26H93.3079V13.454H97.3579C98.3059 13.454 99.1039 13.616 99.7519 13.94C100.412 14.264 100.904 14.702 101.228 15.254C101.552 15.806 101.714 16.436 101.714 17.144C101.714 18.008 101.462 18.77 100.958 19.43C100.466 20.09 99.7219 20.528 98.7259 20.744L101.876 26H99.9139ZM94.9459 19.556H97.3579C98.2459 19.556 98.9119 19.34 99.3559 18.908C99.7999 18.464 100.022 17.876 100.022 17.144C100.022 16.4 99.7999 15.824 99.3559 15.416C98.9239 15.008 98.2579 14.804 97.3579 14.804H94.9459V19.556ZM105.105 14.534C104.793 14.534 104.529 14.426 104.313 14.21C104.097 13.994 103.989 13.73 103.989 13.418C103.989 13.106 104.097 12.842 104.313 12.626C104.529 12.41 104.793 12.302 105.105 12.302C105.405 12.302 105.657 12.41 105.861 12.626C106.077 12.842 106.185 13.106 106.185 13.418C106.185 13.73 106.077 13.994 105.861 14.21C105.657 14.426 105.405 14.534 105.105 14.534ZM105.897 16.136V26H104.259V16.136H105.897ZM108.077 21.032C108.077 20.024 108.281 19.142 108.689 18.386C109.097 17.618 109.655 17.024 110.363 16.604C111.083 16.184 111.887 15.974 112.775 15.974C113.543 15.974 114.257 16.154 114.917 16.514C115.577 16.862 116.081 17.324 116.429 17.9V12.68H118.085V26H116.429V24.146C116.105 24.734 115.625 25.22 114.989 25.604C114.353 25.976 113.609 26.162 112.757 26.162C111.881 26.162 111.083 25.946 110.363 25.514C109.655 25.082 109.097 24.476 108.689 23.696C108.281 22.916 108.077 22.028 108.077 21.032ZM116.429 21.05C116.429 20.306 116.279 19.658 115.979 19.106C115.679 18.554 115.271 18.134 114.755 17.846C114.251 17.546 113.693 17.396 113.081 17.396C112.469 17.396 111.911 17.54 111.407 17.828C110.903 18.116 110.501 18.536 110.201 19.088C109.901 19.64 109.751 20.288 109.751 21.032C109.751 21.788 109.901 22.448 110.201 23.012C110.501 23.564 110.903 23.99 111.407 24.29C111.911 24.578 112.469 24.722 113.081 24.722C113.693 24.722 114.251 24.578 114.755 24.29C115.271 23.99 115.679 23.564 115.979 23.012C116.279 22.448 116.429 21.794 116.429 21.05ZM129.853 20.69C129.853 21.002 129.835 21.332 129.799 21.68H121.915C121.975 22.652 122.305 23.414 122.905 23.966C123.517 24.506 124.255 24.776 125.119 24.776C125.827 24.776 126.415 24.614 126.883 24.29C127.363 23.954 127.699 23.51 127.891 22.958H129.655C129.391 23.906 128.863 24.68 128.071 25.28C127.279 25.868 126.295 26.162 125.119 26.162C124.183 26.162 123.343 25.952 122.599 25.532C121.867 25.112 121.291 24.518 120.871 23.75C120.451 22.97 120.241 22.07 120.241 21.05C120.241 20.03 120.445 19.136 120.853 18.368C121.261 17.6 121.831 17.012 122.563 16.604C123.307 16.184 124.159 15.974 125.119 15.974C126.055 15.974 126.883 16.178 127.603 16.586C128.323 16.994 128.875 17.558 129.259 18.278C129.655 18.986 129.853 19.79 129.853 20.69ZM128.161 20.348C128.161 19.724 128.023 19.19 127.747 18.746C127.471 18.29 127.093 17.948 126.613 17.72C126.145 17.48 125.623 17.36 125.047 17.36C124.219 17.36 123.511 17.624 122.923 18.152C122.347 18.68 122.017 19.412 121.933 20.348H128.161ZM135.507 26.162C134.751 26.162 134.073 26.036 133.473 25.784C132.873 25.52 132.399 25.16 132.051 24.704C131.703 24.236 131.511 23.702 131.475 23.102H133.167C133.215 23.594 133.443 23.996 133.851 24.308C134.271 24.62 134.817 24.776 135.489 24.776C136.113 24.776 136.605 24.638 136.965 24.362C137.325 24.086 137.505 23.738 137.505 23.318C137.505 22.886 137.313 22.568 136.929 22.364C136.545 22.148 135.951 21.938 135.147 21.734C134.415 21.542 133.815 21.35 133.347 21.158C132.891 20.954 132.495 20.66 132.159 20.276C131.835 19.88 131.673 19.364 131.673 18.728C131.673 18.224 131.823 17.762 132.123 17.342C132.423 16.922 132.849 16.592 133.401 16.352C133.953 16.1 134.583 15.974 135.291 15.974C136.383 15.974 137.265 16.25 137.937 16.802C138.609 17.354 138.969 18.11 139.017 19.07H137.379C137.343 18.554 137.133 18.14 136.749 17.828C136.377 17.516 135.873 17.36 135.237 17.36C134.649 17.36 134.181 17.486 133.833 17.738C133.485 17.99 133.311 18.32 133.311 18.728C133.311 19.052 133.413 19.322 133.617 19.538C133.833 19.742 134.097 19.91 134.409 20.042C134.733 20.162 135.177 20.3 135.741 20.456C136.449 20.648 137.025 20.84 137.469 21.032C137.913 21.212 138.291 21.488 138.603 21.86C138.927 22.232 139.095 22.718 139.107 23.318C139.107 23.858 138.957 24.344 138.657 24.776C138.357 25.208 137.931 25.55 137.379 25.802C136.839 26.042 136.215 26.162 135.507 26.162Z" fill="url(#paint2_linear)"/>
<defs>
<linearGradient id="paint0_linear" x1="8.94234e-07" y1="20.3636" x2="32.2747" y2="36.1539" gradientUnits="userSpaceOnUse">
<stop stop-color="#5F9DFA"/>
<stop offset="1" stop-color="#4484E5"/>
</linearGradient>
<linearGradient id="paint1_linear" x1="20.6803" y1="8.84656" x2="20.6803" y2="31.2501" gradientUnits="userSpaceOnUse">
<stop stop-color="white"/>
<stop offset="1" stop-color="#DCDCDC"/>
</linearGradient>
<linearGradient id="paint2_linear" x1="51" y1="20.3636" x2="87.9681" y2="78.6924" gradientUnits="userSpaceOnUse">
<stop stop-color="#5F9DFA"/>
<stop offset="1" stop-color="#4484E5"/>
</linearGradient>
<clipPath id="clip0">
<rect width="17.6786" height="22.5" fill="white" transform="translate(11.25 8.75)"/>
</clipPath>
</defs>
</svg>
