<svg width="45" height="45" viewBox="0 0 45 45" fill="none" xmlns="http://www.w3.org/2000/svg">
<g clip-path="url(#clip0)">
<path d="M22.5 11.8233L6.45101 25.054C6.45101 25.0727 6.44632 25.1002 6.43693 25.1376C6.42774 25.1748 6.42285 25.2017 6.42285 25.2209V38.6184C6.42285 39.1021 6.5997 39.5214 6.95331 39.8744C7.30682 40.2276 7.72544 40.4053 8.20927 40.4053H18.927V29.687H26.0732V40.4057H36.7908C37.2745 40.4057 37.6937 40.2284 38.0468 39.8744C38.4004 39.5217 38.5778 39.1022 38.5778 38.6184V25.2209C38.5778 25.1466 38.5676 25.0905 38.5496 25.054L22.5 11.8233Z" fill="url(#paint0_linear)"/>
<path d="M44.6896 22.0394L38.5772 16.9595V5.57138C38.5772 5.31104 38.4936 5.09693 38.3256 4.92937C38.159 4.762 37.9449 4.67831 37.684 4.67831H32.325C32.0644 4.67831 31.8504 4.762 31.6827 4.92937C31.5154 5.09693 31.4319 5.31113 31.4319 5.57138V11.0141L24.6215 5.31993C24.0267 4.8361 23.3195 4.59424 22.5006 4.59424C21.6819 4.59424 20.9748 4.8361 20.3794 5.31993L0.310158 22.0394C0.124115 22.188 0.0221489 22.388 0.00318291 22.6393C-0.0156853 22.8904 0.0493269 23.1096 0.198415 23.2956L1.92891 25.3611C2.078 25.5285 2.27314 25.6308 2.5151 25.6683C2.73849 25.6871 2.96188 25.6217 3.18526 25.473L22.5001 9.36731L41.815 25.4729C41.9642 25.6027 42.1593 25.6675 42.4012 25.6675H42.4851C42.7267 25.6307 42.9214 25.5277 43.0713 25.3607L44.802 23.2955C44.9508 23.1091 45.016 22.8903 44.9966 22.6389C44.9776 22.3883 44.8752 22.1883 44.6896 22.0394Z" fill="url(#paint1_linear)"/>
</g>
<defs>
<linearGradient id="paint0_linear" x1="6.42285" y1="26.3743" x2="31.1017" y2="39.9575" gradientUnits="userSpaceOnUse">
<stop stop-color="#5F9DFA"/>
<stop offset="1" stop-color="#4484E5"/>
</linearGradient>
<linearGradient id="paint1_linear" x1="1.00601e-06" y1="15.3244" x2="21.5201" y2="37.8031" gradientUnits="userSpaceOnUse">
<stop stop-color="#5F9DFA"/>
<stop offset="1" stop-color="#4484E5"/>
</linearGradient>
<clipPath id="clip0">
<rect width="45" height="44.9999" fill="white"/>
</clipPath>
</defs>
</svg>
