<svg width="58" height="58" viewBox="0 0 58 58" fill="none" xmlns="http://www.w3.org/2000/svg">
<path d="M29 58C45.0163 58 58 45.0163 58 29C58 12.9837 45.0163 0 29 0C12.9837 0 0 12.9837 0 29C0 45.0163 12.9837 58 29 58Z" fill="white"/>
<path d="M22 29L44 44V29.273V14L22 29Z" fill="url(#paint0_linear)"/>
<path d="M44 45C43.803 45 43.606 44.941 43.437 44.826L21.437 29.826C21.164 29.64 21 29.331 21 29C21 28.669 21.164 28.36 21.437 28.174L43.437 13.174C43.745 12.966 44.142 12.943 44.468 13.116C44.795 13.289 45 13.629 45 14V44C45 44.371 44.795 44.711 44.467 44.884C44.321 44.962 44.16 45 44 45ZM23.775 29L43 42.107V15.893L23.775 29Z" fill="url(#paint1_linear)"/>
<path d="M18 14H13V44H18V14Z" fill="url(#paint2_linear)"/>
<path d="M19 45H12V13H19V45ZM14 43H17V15H14V43Z" fill="url(#paint3_linear)"/>
<defs>
<linearGradient id="paint0_linear" x1="22" y1="29.2727" x2="41.4911" y2="36.2657" gradientUnits="userSpaceOnUse">
<stop stop-color="#5F9DFA"/>
<stop offset="1" stop-color="#4484E5"/>
</linearGradient>
<linearGradient id="paint1_linear" x1="21" y1="29.2911" x2="42.152" y2="37.0526" gradientUnits="userSpaceOnUse">
<stop stop-color="#5F9DFA"/>
<stop offset="1" stop-color="#4484E5"/>
</linearGradient>
<linearGradient id="paint2_linear" x1="13" y1="29.2727" x2="17.967" y2="29.6777" gradientUnits="userSpaceOnUse">
<stop stop-color="#5F9DFA"/>
<stop offset="1" stop-color="#4484E5"/>
</linearGradient>
<linearGradient id="paint3_linear" x1="12" y1="29.2909" x2="18.9207" y2="30.0316" gradientUnits="userSpaceOnUse">
<stop stop-color="#5F9DFA"/>
<stop offset="1" stop-color="#4484E5"/>
</linearGradient>
</defs>
</svg>
